<?xml version="1.0" encoding="utf-8"?>
<!-- Generator: Adobe Illustrator 21.0.0, SVG Export Plug-In . SVG Version: 6.00 Build 0)  -->
<svg version="1.1" id="Layer_1" xmlns="http://www.w3.org/2000/svg" xmlns:xlink="http://www.w3.org/1999/xlink" x="0px" y="0px"
	 viewBox="0 0 1000 1000" style="enable-background:new 0 0 1000 1000;" xml:space="preserve">
<style type="text/css">
	.st0{fill:#001E33;}
	.st1{fill:#0094FF;}
</style>
<g id="Layer_1_1_">
</g>
<g id="cons">
	<g>
		<path id="head" class="st0" d="M429.7,97.1c6,0-135-8-160,95c-4,88,11,87,10,114c-3,18-13-4-25,17c-8,16,1,66,8,79
			s26.6,29.1,29,32c11,31,38,131,151,131c26,0,103-30,125-105c10-57,36-7,49-116c-7-48-26-24-30-31c3-50,24-133-13-152s-30-37-59-52
			C481.7,94.1,423.7,97.1,429.7,97.1z"/>
		<path id="body" class="st0" d="M316.6,600.1c-21.9,1.8-85.8,21.9-144,45c-40.1,16-78,30.6-96,53c-21,30-17,56.8-17,82
			c0,28,0.7,51.5,2,63c7,61,57,60,57,60s637,0,638,0s45,1,51-60c3-55,4-79-1-112s-33.3-50.2-47-58c-14-8-55-21.7-87-34
			c-44.2-17-95.2-37.8-119-39c-13,46-69,221-69,221l-17-136c0,0,15-25,15-32s-6-23-10-28s-70-3-75-1s-11,21-11,28s16,33,16,33
			l-18,134C384.6,819.1,322.6,629.1,316.6,600.1z"/>
		<path id="message_box" class="st1" d="M639.6,183.1h264c0,0,17.8,3.3,27,14c12,14,10,24,10,24s0,236,0,243c0,4-3,13-11,22
			s-28,10-28,10h-75l-103,104c0,0-4,3-9,2s-6-7-6-7v-98h-113c0,0,7-8,10-16s4-18,4-18h131l1,72l73-72l87-1c0,0,3,0,4-1s1-5,1-5
			l2-230c0,0,0.6-4.4-1-6c-2-2-6-2-6-2h-259c0,0,1-1,0-15S639.6,183.1,639.6,183.1z"/>
		<g id="inner_message">
			<g id="crosses">
				<g id="cross">
					
						<rect x="677.1" y="246.6" transform="matrix(0.7071 -0.7071 0.7071 0.7071 1.5582 568.9591)" class="st0" width="21" height="72"/>
					
						<rect x="651.6" y="272.1" transform="matrix(0.7071 -0.7071 0.7071 0.7071 1.53 568.9609)" class="st0" width="72" height="21"/>
				</g>
				<g id="cross_1_">
					
						<rect x="833.1" y="364.6" transform="matrix(0.7071 -0.7071 0.7071 0.7071 -36.1898 713.8279)" class="st0" width="21" height="72"/>
					
						<rect x="807.6" y="390.1" transform="matrix(0.7071 -0.7071 0.7071 0.7071 -36.2184 713.8317)" class="st0" width="72" height="21"/>
				</g>
			</g>
			<g id="Arrow">
				<circle class="st0" cx="691.6" cy="409.1" r="29"/>
				<path id="arrow" class="st0" d="M679.6,398.1c0,0,33,7,56-14s31-77,51-95s45-25,45-25l-16-17l65,6l-42,47l-2-24c0,0-22,8-41,30
					s-26,80-50,96s-66,26-66,26V398.1z"/>
			</g>
		</g>
	</g>
</g>
</svg>
