<?xml version="1.0" encoding="utf-8"?>
<!-- Generator: Adobe Illustrator 21.0.0, SVG Export Plug-In . SVG Version: 6.00 Build 0)  -->
<svg version="1.1" id="Layer_1" xmlns="http://www.w3.org/2000/svg" xmlns:xlink="http://www.w3.org/1999/xlink" x="0px" y="0px"
	 viewBox="0 0 1000 1000" style="enable-background:new 0 0 1000 1000;" xml:space="preserve">
<style type="text/css">
	.st0{display:none;}
	.st1{display:inline;}
	.st2{fill:#001E33;}
	.st3{fill:#0094FF;}
	.st4{fill:#009CFC;}
</style>
<g id="Layer_1_1_">
</g>
<g id="cons" class="st0">
	<g class="st1">
		<path id="head" class="st2" d="M429.7,97.1c6,0-135-8-160,95c-4,88,11,87,10,114c-3,18-13-4-25,17c-8,16,1,66,8,79
			s26.6,29.1,29,32c11,31,38,131,151,131c26,0,103-30,125-105c10-57,36-7,49-116c-7-48-26-24-30-31c3-50,24-133-13-152s-30-37-59-52
			C481.7,94.1,423.7,97.1,429.7,97.1z"/>
		<path id="body" class="st2" d="M316.6,600.1c-21.9,1.8-85.8,21.9-144,45c-40.1,16-78,30.6-96,53c-21,30-17,56.8-17,82
			c0,28,0.7,51.5,2,63c7,61,57,60,57,60s637,0,638,0s45,1,51-60c3-55,4-79-1-112s-33.3-50.2-47-58c-14-8-55-21.7-87-34
			c-44.2-17-95.2-37.8-119-39c-13,46-69,221-69,221l-17-136c0,0,15-25,15-32s-6-23-10-28s-70-3-75-1s-11,21-11,28s16,33,16,33
			l-18,134C384.6,819.1,322.6,629.1,316.6,600.1z"/>
		<path id="message_box" class="st3" d="M639.6,183.1h264c0,0,17.8,3.3,27,14c12,14,10,24,10,24s0,236,0,243c0,4-3,13-11,22
			s-28,10-28,10h-75l-103,104c0,0-4,3-9,2s-6-7-6-7v-98h-113c0,0,7-8,10-16s4-18,4-18h131l1,72l73-72l87-1c0,0,3,0,4-1s1-5,1-5
			l2-230c0,0,0.6-4.4-1-6c-2-2-6-2-6-2h-259c0,0,1-1,0-15S639.6,183.1,639.6,183.1z"/>
		<g id="inner_message">
			<g id="crosses">
				<g id="cross">
					
						<rect x="677.1" y="246.6" transform="matrix(0.7071 -0.7071 0.7071 0.7071 1.5582 568.9591)" class="st2" width="21" height="72"/>
					
						<rect x="651.6" y="272.1" transform="matrix(0.7071 -0.7071 0.7071 0.7071 1.53 568.9609)" class="st2" width="72" height="21"/>
				</g>
				<g id="cross_1_">
					
						<rect x="833.1" y="364.6" transform="matrix(0.7071 -0.7071 0.7071 0.7071 -36.1898 713.8279)" class="st2" width="21" height="72"/>
					
						<rect x="807.6" y="390.1" transform="matrix(0.7071 -0.7071 0.7071 0.7071 -36.2184 713.8317)" class="st2" width="72" height="21"/>
				</g>
			</g>
			<g id="Arrow">
				<circle class="st2" cx="691.6" cy="409.1" r="29"/>
				<path id="arrow" class="st2" d="M679.6,398.1c0,0,33,7,56-14s31-77,51-95s45-25,45-25l-16-17l65,6l-42,47l-2-24c0,0-22,8-41,30
					s-26,80-50,96s-66,26-66,26V398.1z"/>
			</g>
		</g>
	</g>
</g>
<g id="dev" class="st0">
	<g class="st1">
		<g id="screen">
			<path class="st2" d="M859.3,201.9c25.2,0,45.9,20.6,45.9,45.9v504.5c0,25.2-20.6,45.9-45.9,45.9H140.7
				c-25.2,0-45.9-20.6-45.9-45.9V247.7c0-25.2,20.6-45.9,45.9-45.9h718.6 M859.3,171.3H140.7c-42,0-76.4,34.4-76.4,76.4v504.5
				c0,42,34.4,76.4,76.4,76.4h718.6c42,0,76.4-34.4,76.4-76.4V247.7C935.7,205.7,901.3,171.3,859.3,171.3L859.3,171.3z"/>
			<path class="st2" d="M863.1,347.1H140.7c-4.6,0-7.6-3.1-7.6-7.6c0-4.6,3.1-7.6,7.6-7.6h722.4c4.6,0,7.6,3.1,7.6,7.6
				C870.8,344,867.7,347.1,863.1,347.1z"/>
			<circle class="st3" cx="175.1" cy="269.1" r="22.9"/>
			<circle class="st2" cx="243.9" cy="269.1" r="22.9"/>
			<circle class="st3" cx="312.7" cy="269.1" r="22.9"/>
		</g>
		<g>
			<path class="st2" d="M382,524.1l-119,50.1l119,49.1v24.4l-145.5-61.3V562L382,499.7V524.1z"/>
			<path class="st3" d="M442.1,704.6H417l140.8-270.8h25.1L442.1,704.6z"/>
			<path class="st2" d="M763.5,562v24.4L618,647.7v-24.4l119-49.1l-119-50.1v-24.4L763.5,562z"/>
		</g>
	</g>
</g>
<g id="out" class="st0">
	<g class="st1">
		<g>
			<path id="head_1_" class="st2" d="M366.1,270.4c-2.6,4-14.8,60.4-69.7,61.9c-46.4,1-61-47.6-65.9-57.4c-4.4-8.7-9-7.5-20.5-22.5
				c-3.7-4.8-9-11.5-10-18.5c-4.7-33.1,14.5-28.9,14.5-28.9s-4-26.9-2.5-39.9s3-25.4,10-29.4c7-22,18.5-40.3,74.4-41.4
				c73.4-1.5,81.8,56.4,82.8,67.9s-0.6,31.4-2.1,41.9c4.5,0,17.5-3,17,21c-0.3,15.8-9.5,25-12,27.9S367.1,268.9,366.1,270.4z"/>
			<path id="body_1_" class="st2" d="M364.6,339.7c0,0,20,9.5,42.4,19c19.6,8.3,41.5,16.4,49.4,22c17,12,29.3,33.6,32.9,71.9
				c0.5,38.4-8.5,38.4-16.5,38.4c-26.9,0-307.6,0.4-347.8,0c-13,0-13-10.5-14.5-17.5s-3.5-67.4,27.9-91.3
				c11-8.2,34.1-16.2,53.9-24.5c21.8-9.1,39.9-18,39.9-18s-0.5,11,2.5,40.9c3,30.2,6,36.4,6,36.4s4.5-14.5,17.5-25s23-13,23-13
				s6.5,3.5,17,3.5s16.5-3.5,16.5-3.5s13,3.5,24,13s17.5,23,17.5,23s2.5-8.5,5.5-34.4S364.6,339.7,364.6,339.7z"/>
		</g>
		<g>
			<path class="st4" d="M618.7,535.8l24.8,24.8c57.7-74,92.1-167,92.1-268.1c0.1-84.8-24.2-164.1-66.3-231.2h-42
				c46.2,65.4,73.4,145.2,73.4,231.3C700.8,384,670.2,468.3,618.7,535.8z"/>
			<path class="st4" d="M519.8,628.1c-63.2,41.6-138.9,65.7-220.2,65.7c-87,0-167.5-27.7-233.3-74.8c-0.2,7.4-0.4,14.8-0.7,22.2
				v19.5c67.6,43,147.9,68,233.9,68c91,0,175.5-27.9,245.4-75.5L519.8,628.1z"/>
		</g>
		<path class="st2" d="M910.5,938.7h-62.6c-13.1,0-23.8-10.7-23.8-23.8v-62.6c0-13.1,10.7-23.8,23.8-23.8h62.6
			c13.1,0,23.8,10.7,23.8,23.8v62.6C934.3,928,923.6,938.7,910.5,938.7z"/>
		<path class="st4" d="M751.5,938.7h-62.6c-13.1,0-23.8-10.7-23.8-23.8v-62.6c0-13.1,10.7-23.8,23.8-23.8h62.6
			c13.1,0,23.8,10.7,23.8,23.8v62.6C775.3,928,764.6,938.7,751.5,938.7z"/>
		<path class="st4" d="M910.5,783.9h-62.6c-13.1,0-23.8-10.7-23.8-23.8v-62.6c0-13.1,10.7-23.8,23.8-23.8h62.6
			c13.1,0,23.8,10.7,23.8,23.8v62.6C934.3,773.2,923.6,783.9,910.5,783.9z"/>
		<g>
			<polygon class="st2" points="627.9,683.7 500.7,556.6 544.8,512.6 672,639.7 			"/>
			<polygon class="st2" points="701.4,713.5 667.6,587.7 575.4,679.8 			"/>
		</g>
	</g>
</g>
<g id="mark">
	<g>
		<polygon class="st2" points="333.8,281.2 305.3,252.7 345.7,240 232.4,195.6 273.6,310.5 289.5,267.7 317.2,297 		"/>
		<path class="st3" d="M752.7,431.6V685H245.9V431.6H752.7 M768.6,415.8H230.1v285.1h538.5V415.8L768.6,415.8z"/>
		<path class="st3" d="M149.3,389.7c-24.6-7.1-44.3-26.1-51.5-51.5c-11.1-39.6,11.9-80.8,51.5-91.9c0.8,0,0.8,0,1.6,0l19.8-4.8
			l-9.5-17.4c-2.4-4.8-4.8-10.3-6.3-15c-11.1-41.2,11.9-83.2,51.5-94.2c6.3-1.6,13.5-3.2,20.6-3.2l0,0c29.3,0,56.2,17.4,68.1,44.3
			l7.1,15.8l15-8.7c7.1-4,14.3-7.1,21.4-9.5c7.9-2.4,16.6-3.2,25.3-3.2c41.2,0,78.4,27.7,89.5,67.3c12.7,45.1-10.3,91.9-52.3,110.1
			H432c33.3-26.1,49.1-71.3,36.4-114.8c-13.5-47.5-57-79.2-104.5-79.2c-9.5,0-19.8,1.6-29.3,4c-8.7,2.4-17.4,6.3-25.3,11.1
			c-15-32.5-47.5-53.9-83.2-53.9c-7.9,0-16.6,0.8-24.6,3.2c-48.3,13.5-76.8,64.1-62.6,112.5c1.6,6.3,4.8,12.7,7.9,18.2
			c-0.8,0-0.8,0-1.6,0c-48.3,13.5-76,63.4-62.6,111.7c8.7,30.9,33.3,53.9,61.8,61.8C146.1,399.2,147.7,394.4,149.3,389.7z"/>
		<path class="st2" d="M516,328.7h16.6l24.6-106.1l4-15l-15-4l-26.1-6.3l6.3-26.9l26.1,6.3l15,4l4-15l8.7-38.8
			c8.7-37.2,25.3-57.8,80-44.3l34.1,7.9l-7.1,24.6l-13.5-3.2c-29.3-7.1-45.1,2.4-51.5,29.3l-7.9,34.1l-4,15l15.8,4l39.6,9.5
			l-9.5,26.1l-36.4-8.7l-15-4l-4,15l-23,96.6h16.6l21.4-92.7l49.9,11.9l20.6-56.2l-57-13.5l7.9-34.1c4-15,8.7-23,32.5-17.4l29.3,7.1
			l13.5-56.2l-49.1-11.9c-61-14.3-87.9,7.9-99,56.2l-9.5,38.8l-41.2-9.5l-13.5,57.8l41.2,9.5L516,328.7z"/>
		<path class="st3" d="M899.3,289.1c0-6.3-0.8-12.7-1.6-19l19.8-10.3c-4-16.6-12.7-31.7-23.8-45.1L873.9,225
			c-4.8-4.8-9.5-8.7-14.3-11.9l6.3-21.4c-7.1-4-15-7.9-23-10.3c-8.7-2.4-16.6-4-25.3-4.8l-6.3,21.4c-0.8,0-0.8,0-1.6,0
			c-5.5,0-11.9,0.8-17.4,1.6L782,179.8c-16.6,4-31.7,12.7-45.1,23.8l10.3,19.8c-4.8,4.8-8.7,9.5-11.9,14.3l-21.4-6.3
			c-4,7.1-7.9,15-10.3,23c-2.4,8.7-4,16.6-4.8,25.3l21.4,6.3c0,6.3,0.8,12.7,1.6,19L702,315.3c0.8,4.8,2.4,8.7,4.8,13.5h17.4
			c-0.8-1.6-1.6-4-2.4-5.5l7.9-4l10.3-5.5l-2.4-11.9c-0.8-4.8-1.6-10.3-1.6-15.8V274l-11.1-3.2l-7.9-2.4c0.8-3.2,1.6-6.3,2.4-9.5
			c0.8-3.2,2.4-6.3,3.2-8.7l7.9,2.4l11.1,3.2l6.3-9.5c3.2-4.8,6.3-8.7,10.3-11.9l8.7-7.9l-5.5-10.3l-4-7.9
			c5.5-3.2,11.1-6.3,16.6-8.7l4,7.9l5.5,10.3l11.9-2.4c4.8-0.8,9.5-1.6,14.3-1.6h1.6h11.9l3.2-11.1l2.4-7.9c3.2,0.8,6.3,1.6,9.5,2.4
			s6.3,2.4,8.7,3.2l-2.4,7.9l-3.2,11.1l9.5,6.3c4.8,3.2,8.7,6.3,11.9,10.3l7.9,8.7l10.3-5.5l7.9-4c3.2,5.5,6.3,11.1,8.7,16.6l-7.9,4
			l-10.3,5.5l2.4,11.9c0.8,4.8,1.6,10.3,1.6,15.8v12l11.1,3.2l7.9,2.4c-0.8,3.2-1.6,6.3-2.4,9.5c-0.8,3.2-2.4,6.3-3.2,8.7l-7.9-2.4
			l-11.1-3.2l-6.3,9.5c-3.2,4.8-6.3,8.7-10.3,11.9l-8.7,7.9l5.5,10.3l4,7.9c-5.5,3.2-11.1,6.3-16.6,8.7l-4-7.9l-5.5-10.3l-5.5,0.8
			c8.7,9.5,15.8,19.8,19.8,32.5c11.9-4.8,23-11.1,32.5-19.8l-10.3-19.8c4.8-4.8,8.7-9.5,11.9-14.3l21.4,6.3c4-7.1,7.9-15,10.3-23
			c2.4-8.7,4-16.6,4.8-25.3L899.3,289.1z"/>
		<circle class="st3" cx="809.8" cy="284.3" r="26.1"/>
		<g>
			<path class="st3" d="M329.8,627.3l9.5-23c10.3,7.1,20.6,11.1,30.1,11.1c15,0,23-5.5,23-15.8c0-4.8-1.6-9.5-5.5-14.3
				c-4-4.8-11.1-9.5-22.2-15s-19-10.3-23-14.3s-7.1-7.9-8.7-12.7c-2.4-4.8-3.2-10.3-3.2-16.6c0-11.1,4-20.6,12.7-28.5
				s19-11.1,31.7-11.1c16.6,0,29.3,3.2,37.2,9.5l-7.9,22.2c-9.5-6.3-19-9.5-29.3-9.5c-6.3,0-10.3,1.6-14.3,4.8
				c-4,3.2-4.8,7.1-4.8,12.7c0,8.7,9.5,17.4,27.7,26.1c9.5,4.8,16.6,9.5,21.4,13.5c4,4,7.9,8.7,10.3,14.3c2.4,5.5,3.2,11.1,3.2,18.2
				c0,11.9-4.8,21.4-14.3,29.3c-9.5,7.9-22.2,11.9-38,11.9C353.6,638.3,340.9,634.4,329.8,627.3z"/>
			<path class="st3" d="M467.6,511.6v34.1H516v22.2h-48.3v44.3h66.5v23h-92.7V488.7H535v23h-67.4V511.6z"/>
			<path class="st3" d="M551.6,560.7c0-20.6,5.5-38.8,17.4-53.1c11.1-14.3,26.9-21.4,45.9-21.4c21.4,0,37.2,6.3,48.3,19.8
				s16.6,31.7,16.6,55.4c0,23.8-5.5,42.8-17.4,56.2c-11.9,14.3-28.5,20.6-49.9,20.6c-19.8,0-34.8-7.1-45.1-20.6
				C557.1,603.5,551.6,585.3,551.6,560.7z M578.5,560.7c0,17.4,3.2,30.1,8.7,39.6s14.3,14.3,25.3,14.3c12.7,0,23-4.8,30.1-13.5
				c7.1-9.5,10.3-23,10.3-40.4c0-34.1-12.7-51.5-38-51.5c-11.9,0-20.6,4.8-26.9,14.3C581.7,533,578.5,544.9,578.5,560.7z"/>
		</g>
		<circle class="st2" cx="499.3" cy="748.4" r="23.8"/>
		<path class="st2" d="M590.4,906.8h-75.2v-43.6c0-8.7-7.1-15.8-15.8-15.8c-8.7,0-15.8,7.1-15.8,15.8v43.6h-75.2
			c-8.7,0-15.8,7.1-15.8,15.8s7.1,15.8,15.8,15.8h182.1c8.7,0,15.8-7.1,15.8-15.8C606.2,913.9,599.1,906.8,590.4,906.8z"/>
		<path class="st2" d="M760.7,376.2c26.1,0,47.5,21.4,47.5,47.5v324.7c0,26.1-21.4,47.5-47.5,47.5H238c-26.1,0-47.5-21.4-47.5-47.5
			V423.7c0-26.1,21.4-47.5,47.5-47.5H760.7 M760.7,344.5H238c-43.6,0-79.2,35.6-79.2,79.2v324.7c0,43.6,35.6,79.2,79.2,79.2h522.7
			c43.6,0,79.2-35.6,79.2-79.2V423.7C839.9,380.2,804.2,344.5,760.7,344.5L760.7,344.5z"/>
	</g>
</g>
</svg>
