<?xml version="1.0" encoding="utf-8"?>
<!-- Generator: Adobe Illustrator 21.0.0, SVG Export Plug-In . SVG Version: 6.00 Build 0)  -->
<svg version="1.1" id="Layer_1" xmlns="http://www.w3.org/2000/svg" xmlns:xlink="http://www.w3.org/1999/xlink" x="0px" y="0px"
	 viewBox="0 0 1000 1000" style="enable-background:new 0 0 1000 1000;" xml:space="preserve">
<style type="text/css">
	.st0{fill:#FFFFFF;}
</style>
<g id="Layer_1_1_">
</g>
<g id="mark">
	<g>
		<polygon class="st0" points="333.8,281.2 305.3,252.7 345.7,240 232.4,195.6 273.6,310.5 289.5,267.7 317.2,297 		"/>
		<path class="st0" d="M752.7,431.6V685H245.9V431.6H752.7 M768.6,415.8H230.1v285.1h538.5V415.8L768.6,415.8z"/>
		<path class="st0" d="M149.3,389.7c-24.6-7.1-44.3-26.1-51.5-51.5c-11.1-39.6,11.9-80.8,51.5-91.9c0.8,0,0.8,0,1.6,0l19.8-4.8
			l-9.5-17.4c-2.4-4.8-4.8-10.3-6.3-15c-11.1-41.2,11.9-83.2,51.5-94.2c6.3-1.6,13.5-3.2,20.6-3.2l0,0c29.3,0,56.2,17.4,68.1,44.3
			l7.1,15.8l15-8.7c7.1-4,14.3-7.1,21.4-9.5c7.9-2.4,16.6-3.2,25.3-3.2c41.2,0,78.4,27.7,89.5,67.3c12.7,45.1-10.3,91.9-52.3,110.1
			H432c33.3-26.1,49.1-71.3,36.4-114.8c-13.5-47.5-57-79.2-104.5-79.2c-9.5,0-19.8,1.6-29.3,4c-8.7,2.4-17.4,6.3-25.3,11.1
			c-15-32.5-47.5-53.9-83.2-53.9c-7.9,0-16.6,0.8-24.6,3.2c-48.3,13.5-76.8,64.1-62.6,112.5c1.6,6.3,4.8,12.7,7.9,18.2
			c-0.8,0-0.8,0-1.6,0c-48.3,13.5-76,63.4-62.6,111.7c8.7,30.9,33.3,53.9,61.8,61.8C146.1,399.2,147.7,394.4,149.3,389.7z"/>
		<path class="st0" d="M516,328.7h16.6l24.6-106.1l4-15l-15-4l-26.1-6.3l6.3-26.9l26.1,6.3l15,4l4-15l8.7-38.8
			c8.7-37.2,25.3-57.8,80-44.3l34.1,7.9l-7.1,24.6l-13.5-3.2c-29.3-7.1-45.1,2.4-51.5,29.3l-7.9,34.1l-4,15l15.8,4l39.6,9.5
			l-9.5,26.1l-36.4-8.7l-15-4l-4,15l-23,96.6h16.6l21.4-92.7l49.9,11.9l20.6-56.2l-57-13.5l7.9-34.1c4-15,8.7-23,32.5-17.4l29.3,7.1
			l13.5-56.2l-49.1-11.9c-61-14.3-87.9,7.9-99,56.2l-9.5,38.8l-41.2-9.5l-13.5,57.8l41.2,9.5L516,328.7z"/>
		<path class="st0" d="M899.3,289.1c0-6.3-0.8-12.7-1.6-19l19.8-10.3c-4-16.6-12.7-31.7-23.8-45.1L873.9,225
			c-4.8-4.8-9.5-8.7-14.3-11.9l6.3-21.4c-7.1-4-15-7.9-23-10.3c-8.7-2.4-16.6-4-25.3-4.8l-6.3,21.4c-0.8,0-0.8,0-1.6,0
			c-5.5,0-11.9,0.8-17.4,1.6L782,179.8c-16.6,4-31.7,12.7-45.1,23.8l10.3,19.8c-4.8,4.8-8.7,9.5-11.9,14.3l-21.4-6.3
			c-4,7.1-7.9,15-10.3,23c-2.4,8.7-4,16.6-4.8,25.3l21.4,6.3c0,6.3,0.8,12.7,1.6,19L702,315.3c0.8,4.8,2.4,8.7,4.8,13.5h17.4
			c-0.8-1.6-1.6-4-2.4-5.5l7.9-4l10.3-5.5l-2.4-11.9c-0.8-4.8-1.6-10.3-1.6-15.8V274l-11.1-3.2l-7.9-2.4c0.8-3.2,1.6-6.3,2.4-9.5
			c0.8-3.2,2.4-6.3,3.2-8.7l7.9,2.4l11.1,3.2l6.3-9.5c3.2-4.8,6.3-8.7,10.3-11.9l8.7-7.9l-5.5-10.3l-4-7.9
			c5.5-3.2,11.1-6.3,16.6-8.7l4,7.9l5.5,10.3l11.9-2.4c4.8-0.8,9.5-1.6,14.3-1.6h1.6h11.9l3.2-11.1l2.4-7.9c3.2,0.8,6.3,1.6,9.5,2.4
			s6.3,2.4,8.7,3.2l-2.4,7.9l-3.2,11.1l9.5,6.3c4.8,3.2,8.7,6.3,11.9,10.3l7.9,8.7l10.3-5.5l7.9-4c3.2,5.5,6.3,11.1,8.7,16.6l-7.9,4
			l-10.3,5.5l2.4,11.9c0.8,4.8,1.6,10.3,1.6,15.8v12l11.1,3.2l7.9,2.4c-0.8,3.2-1.6,6.3-2.4,9.5c-0.8,3.2-2.4,6.3-3.2,8.7l-7.9-2.4
			l-11.1-3.2l-6.3,9.5c-3.2,4.8-6.3,8.7-10.3,11.9l-8.7,7.9l5.5,10.3l4,7.9c-5.5,3.2-11.1,6.3-16.6,8.7l-4-7.9l-5.5-10.3l-5.5,0.8
			c8.7,9.5,15.8,19.8,19.8,32.5c11.9-4.8,23-11.1,32.5-19.8l-10.3-19.8c4.8-4.8,8.7-9.5,11.9-14.3l21.4,6.3c4-7.1,7.9-15,10.3-23
			c2.4-8.7,4-16.6,4.8-25.3L899.3,289.1z"/>
		<circle class="st0" cx="809.8" cy="284.3" r="26.1"/>
		<g>
			<path class="st0" d="M329.8,627.3l9.5-23c10.3,7.1,20.6,11.1,30.1,11.1c15,0,23-5.5,23-15.8c0-4.8-1.6-9.5-5.5-14.3
				c-4-4.8-11.1-9.5-22.2-15s-19-10.3-23-14.3s-7.1-7.9-8.7-12.7c-2.4-4.8-3.2-10.3-3.2-16.6c0-11.1,4-20.6,12.7-28.5
				s19-11.1,31.7-11.1c16.6,0,29.3,3.2,37.2,9.5l-7.9,22.2c-9.5-6.3-19-9.5-29.3-9.5c-6.3,0-10.3,1.6-14.3,4.8
				c-4,3.2-4.8,7.1-4.8,12.7c0,8.7,9.5,17.4,27.7,26.1c9.5,4.8,16.6,9.5,21.4,13.5c4,4,7.9,8.7,10.3,14.3c2.4,5.5,3.2,11.1,3.2,18.2
				c0,11.9-4.8,21.4-14.3,29.3c-9.5,7.9-22.2,11.9-38,11.9C353.6,638.3,340.9,634.4,329.8,627.3z"/>
			<path class="st0" d="M467.6,511.6v34.1H516v22.2h-48.3v44.3h66.5v23h-92.7V488.7H535v23h-67.4V511.6z"/>
			<path class="st0" d="M551.6,560.7c0-20.6,5.5-38.8,17.4-53.1c11.1-14.3,26.9-21.4,45.9-21.4c21.4,0,37.2,6.3,48.3,19.8
				s16.6,31.7,16.6,55.4c0,23.8-5.5,42.8-17.4,56.2c-11.9,14.3-28.5,20.6-49.9,20.6c-19.8,0-34.8-7.1-45.1-20.6
				C557.1,603.5,551.6,585.3,551.6,560.7z M578.5,560.7c0,17.4,3.2,30.1,8.7,39.6s14.3,14.3,25.3,14.3c12.7,0,23-4.8,30.1-13.5
				c7.1-9.5,10.3-23,10.3-40.4c0-34.1-12.7-51.5-38-51.5c-11.9,0-20.6,4.8-26.9,14.3C581.7,533,578.5,544.9,578.5,560.7z"/>
		</g>
		<circle class="st0" cx="499.3" cy="748.4" r="23.8"/>
		<path class="st0" d="M590.4,906.8h-75.2v-43.6c0-8.7-7.1-15.8-15.8-15.8c-8.7,0-15.8,7.1-15.8,15.8v43.6h-75.2
			c-8.7,0-15.8,7.1-15.8,15.8s7.1,15.8,15.8,15.8h182.1c8.7,0,15.8-7.1,15.8-15.8C606.2,913.9,599.1,906.8,590.4,906.8z"/>
		<path class="st0" d="M760.7,376.2c26.1,0,47.5,21.4,47.5,47.5v324.7c0,26.1-21.4,47.5-47.5,47.5H238c-26.1,0-47.5-21.4-47.5-47.5
			V423.7c0-26.1,21.4-47.5,47.5-47.5H760.7 M760.7,344.5H238c-43.6,0-79.2,35.6-79.2,79.2v324.7c0,43.6,35.6,79.2,79.2,79.2h522.7
			c43.6,0,79.2-35.6,79.2-79.2V423.7C839.9,380.2,804.2,344.5,760.7,344.5L760.7,344.5z"/>
	</g>
</g>
</svg>
