<?xml version="1.0" encoding="utf-8"?>
<!-- Generator: Adobe Illustrator 21.0.0, SVG Export Plug-In . SVG Version: 6.00 Build 0)  -->
<svg version="1.1" id="Layer_1" xmlns="http://www.w3.org/2000/svg" xmlns:xlink="http://www.w3.org/1999/xlink" x="0px" y="0px"
	 viewBox="0 0 1000 1000" style="enable-background:new 0 0 1000 1000;" xml:space="preserve">
<style type="text/css">
	.st0{fill:#001E33;}
	.st1{fill:#009CFC;}
</style>
<g id="Layer_1_1_">
</g>
<g id="out">
	<g>
		<g>
			<path id="head_1_" class="st0" d="M366.1,270.4c-2.6,4-14.8,60.4-69.7,61.9c-46.4,1-61-47.6-65.9-57.4c-4.4-8.7-9-7.5-20.5-22.5
				c-3.7-4.8-9-11.5-10-18.5c-4.7-33.1,14.5-28.9,14.5-28.9s-4-26.9-2.5-39.9s3-25.4,10-29.4c7-22,18.5-40.3,74.4-41.4
				c73.4-1.5,81.8,56.4,82.8,67.9s-0.6,31.4-2.1,41.9c4.5,0,17.5-3,17,21c-0.3,15.8-9.5,25-12,27.9S367.1,268.9,366.1,270.4z"/>
			<path id="body_1_" class="st0" d="M364.6,339.7c0,0,20,9.5,42.4,19c19.6,8.3,41.5,16.4,49.4,22c17,12,29.3,33.6,32.9,71.9
				c0.5,38.4-8.5,38.4-16.5,38.4c-26.9,0-307.6,0.4-347.8,0c-13,0-13-10.5-14.5-17.5s-3.5-67.4,27.9-91.3
				c11-8.2,34.1-16.2,53.9-24.5c21.8-9.1,39.9-18,39.9-18s-0.5,11,2.5,40.9c3,30.2,6,36.4,6,36.4s4.5-14.5,17.5-25s23-13,23-13
				s6.5,3.5,17,3.5s16.5-3.5,16.5-3.5s13,3.5,24,13s17.5,23,17.5,23s2.5-8.5,5.5-34.4S364.6,339.7,364.6,339.7z"/>
		</g>
		<g>
			<path class="st1" d="M618.7,535.8l24.8,24.8c57.7-74,92.1-167,92.1-268.1c0.1-84.8-24.2-164.1-66.3-231.2h-42
				c46.2,65.4,73.4,145.2,73.4,231.3C700.8,384,670.2,468.3,618.7,535.8z"/>
			<path class="st1" d="M519.8,628.1c-63.2,41.6-138.9,65.7-220.2,65.7c-87,0-167.5-27.7-233.3-74.8c-0.2,7.4-0.4,14.8-0.7,22.2
				v19.5c67.6,43,147.9,68,233.9,68c91,0,175.5-27.9,245.4-75.5L519.8,628.1z"/>
		</g>
		<path class="st0" d="M910.5,938.7h-62.6c-13.1,0-23.8-10.7-23.8-23.8v-62.6c0-13.1,10.7-23.8,23.8-23.8h62.6
			c13.1,0,23.8,10.7,23.8,23.8v62.6C934.3,928,923.6,938.7,910.5,938.7z"/>
		<path class="st1" d="M751.5,938.7h-62.6c-13.1,0-23.8-10.7-23.8-23.8v-62.6c0-13.1,10.7-23.8,23.8-23.8h62.6
			c13.1,0,23.8,10.7,23.8,23.8v62.6C775.3,928,764.6,938.7,751.5,938.7z"/>
		<path class="st1" d="M910.5,783.9h-62.6c-13.1,0-23.8-10.7-23.8-23.8v-62.6c0-13.1,10.7-23.8,23.8-23.8h62.6
			c13.1,0,23.8,10.7,23.8,23.8v62.6C934.3,773.2,923.6,783.9,910.5,783.9z"/>
		<g>
			<polygon class="st0" points="627.9,683.7 500.7,556.6 544.8,512.6 672,639.7 			"/>
			<polygon class="st0" points="701.4,713.5 667.6,587.7 575.4,679.8 			"/>
		</g>
	</g>
</g>
</svg>
