<?xml version="1.0" encoding="utf-8"?>
<!-- Generator: Adobe Illustrator 21.0.0, SVG Export Plug-In . SVG Version: 6.00 Build 0)  -->
<svg version="1.1" xmlns="http://www.w3.org/2000/svg" xmlns:xlink="http://www.w3.org/1999/xlink" x="0px" y="0px"
	 viewBox="0 0 1000 1000" style="enable-background:new 0 0 1000 1000;" xml:space="preserve">
<style type="text/css">
	.st0{display:none;}
	.st1{display:inline;}
	.st2{fill:#FFFFFF;}
	.st3{fill:#0094FF;}
</style>
<g id="Layer_1" class="st0">
	<g id="Layer_1_1_" class="st1">
	</g>
	<g id="dev" class="st1">
		<g>
			<g id="screen">
				<path class="st2" d="M859.3,201.9c25.2,0,45.9,20.6,45.9,45.9v504.5c0,25.2-20.6,45.9-45.9,45.9H140.7
					c-25.2,0-45.9-20.6-45.9-45.9V247.7c0-25.2,20.6-45.9,45.9-45.9h718.6 M859.3,171.3H140.7c-42,0-76.4,34.4-76.4,76.4v504.5
					c0,42,34.4,76.4,76.4,76.4h718.6c42,0,76.4-34.4,76.4-76.4V247.7C935.7,205.7,901.3,171.3,859.3,171.3L859.3,171.3z"/>
				<path class="st2" d="M863.1,347.1H140.7c-4.6,0-7.6-3.1-7.6-7.6c0-4.6,3.1-7.6,7.6-7.6h722.4c4.6,0,7.6,3.1,7.6,7.6
					C870.8,344,867.7,347.1,863.1,347.1z"/>
				<circle class="st2" cx="175.1" cy="269.1" r="22.9"/>
				<circle class="st2" cx="243.9" cy="269.1" r="22.9"/>
				<circle class="st2" cx="312.7" cy="269.1" r="22.9"/>
			</g>
			<g>
				<path class="st2" d="M382,524.1l-119,50.1l119,49.1v24.4l-145.5-61.3V562L382,499.7V524.1z"/>
				<path class="st2" d="M442.1,704.6H417l140.8-270.8h25.1L442.1,704.6z"/>
				<path class="st2" d="M763.5,562v24.4L618,647.7v-24.4l119-49.1l-119-50.1v-24.4L763.5,562z"/>
			</g>
		</g>
	</g>
</g>
<g id="technology">
	<g>
		<path class="st2" d="M474.3,585.6c-5,0-8.7,6.1-8.7,17.7c0,11.1,3.4,17.3,8.6,17.3c5.9,0,8.7-6.9,8.7-17.7
			C483,592.5,480.3,585.6,474.3,585.6z"/>
		<path class="st2" d="M436.9,694.8c-6.8,0-11.8,8.3-11.8,24.1c0,15,4.6,23.5,11.7,23.5c8,0,11.8-9.3,11.8-24.1
			C448.6,704.1,444.9,694.8,436.9,694.8z"/>
		<path class="st2" d="M300.7,435.4c-8.3,0-14.3,10.1-14.3,29.2c0,18.2,5.6,28.5,14.2,28.5c9.7,0,14.3-11.3,14.3-29.2
			C314.9,446.7,310.5,435.4,300.7,435.4z"/>
		<path class="st2" d="M525.3,342.1c3.5,0,5.1-4.1,5.1-10.5c0-6.2-1.6-10.2-5.1-10.2c-3,0-5.1,3.6-5.1,10.5
			C520.2,338.4,522.2,342.1,525.3,342.1z"/>
		<path class="st2" d="M704.8,776c0-47.4-12.2-78.5-39.1-78.5c-22.8,0-39.4,27.9-39.4,80.3c0,11.7,0.8,22.1,2.4,31.4h73.7
			C704,799.4,704.8,788.2,704.8,776z"/>
		<path class="st2" d="M486.2,450.7c14.3,0,21.1-16.7,21.1-43.1c0-25.4-6.5-42.1-21-42.1c-12.2,0-21.1,14.9-21.1,43.1
			C465.3,435.4,473.5,450.7,486.2,450.7z"/>
		<path class="st2" d="M357.4,345.6c-5,0-8.7,6.1-8.7,17.7c0,11.1,3.4,17.3,8.6,17.3c5.9,0,8.7-6.9,8.7-17.7
			C366,352.5,363.3,345.6,357.4,345.6z"/>
		<path class="st2" d="M897.4,526.9C872,495.3,839.9,475,800.9,466c12.4-19,18.6-39.8,18.6-62.5c0-32-11.3-59.3-34-81.9
			c-22.6-22.6-50-34-81.9-34c-29,0-54,9.4-75.2,28.1c-11.3-27.1-26.8-51-46.4-71.6v118.2h-19.4V237.7c0-4,0.1-7.8,0.2-11.6
			c-3.3-2.8-6.7-5.4-10.2-8.1c-4.8,3.9-12.5,10.2-23.1,18.8L519,223.3l19.5-15.1c-20.4-13.3-42.1-22.9-65-29
			c3.8,8.5,5.8,19.5,5.8,32.7c0,35.1-13,54.5-35.9,54.5c-20.2,0-33.9-18.9-34.2-53.1c0-18.5,4.2-32.5,11.4-41.6
			c-2.3-0.1-4.5-0.1-6.8-0.1c-22.5,0-43.8,2.8-64,8.4c0.5,3.4,0.8,7.2,0.8,11.3c0,24.1-9,37.5-24.7,37.5
			c-12.4,0-21.3-10.4-23.1-29.5c-18.9,10.5-36.5,23.9-52.9,40.3c-45.3,45.3-67.9,99.9-67.9,163.9c0,4.5,0.3,11,0.9,19.5
			c-35,16.3-63.2,41-84.7,74C76.8,530,66.1,566.5,66.1,606.3c0,55.8,19.8,103.6,59.5,143.3c39.7,39.7,87.5,59.5,143.3,59.5h333.9
			c-1.7-9.6-2.6-20.2-2.7-31.7c0-64.6,27.9-100.2,67-100.2c40.6,0,63.7,36.2,63.7,97.5c0,12.5-0.9,24-2.6,34.3h33.3
			c48,0,89-17,122.9-50.9c34-34,50.9-74.9,50.9-122.9C935.4,594.6,922.7,558.4,897.4,526.9z M182.4,721h-7.3v-47.2
			c0-3.9,0.1-7.6,0.4-11.1c-0.6,0.6-1.3,1.3-2.1,2c-0.8,0.7-4.4,3.6-10.8,8.8l-4-5.2l17.5-13.5h6.3V721z M294.6,358.5
			c-0.5,0.4-2.6,2.2-6.5,5.3l-2.4-3.1l10.6-8.2h3.8v40h-4.4V364c0-2.4,0.1-4.6,0.2-6.7C295.5,357.7,295.1,358.1,294.6,358.5z
			 M280.1,274.5c10.8,0,16.9,9.6,16.9,25.8c0,17.3-6.4,26.9-17.7,26.9c-10,0-16.7-9.3-16.9-26.2
			C262.4,283.9,269.7,274.5,280.1,274.5z M241.7,503.6h2.2v23.2h-2.6v-16.5c0-1.4,0-2.7,0.1-3.9c-0.2,0.2-0.5,0.5-0.7,0.7
			c-0.3,0.2-1.5,1.3-3.8,3.1l-1.4-1.8L241.7,503.6z M270.4,714.3c-27.5,0-46.1-25.8-46.6-72.3c0-47.2,20.4-73.2,48.9-73.2
			c29.7,0,46.6,26.4,46.6,71.3C319.4,687.9,301.6,714.3,270.4,714.3z M300,500.4c-13.7,0-22.9-12.8-23.1-35.9
			c0-23.5,10.1-36.4,24.3-36.4c14.7,0,23.1,13.1,23.1,35.4C324.4,487.3,315.5,500.4,300,500.4z M525.5,318.8c5.3,0,8.3,4.7,8.3,12.7
			c0,8.5-3.2,13.3-8.7,13.3c-4.9,0-8.2-4.6-8.3-12.9C516.8,323.4,520.4,318.8,525.5,318.8z M487.2,354.6c21.8,0,34.2,19.4,34.2,52.3
			c0,35.1-13,54.5-35.9,54.5c-20.2,0-33.9-18.9-34.2-53.1C451.3,373.7,466.2,354.6,487.2,354.6z M405.7,281.3h6.4v66.5h-7.4v-47.4
			c0-3.9,0.1-7.7,0.4-11.2c-0.6,0.6-1.4,1.3-2.1,2c-0.8,0.7-4.4,3.7-10.8,8.9l-4-5.2L405.7,281.3z M361.6,757h-4.4v-28.5
			c0-2.4,0.1-4.6,0.2-6.7c-0.4,0.4-0.8,0.8-1.3,1.2s-2.6,2.2-6.5,5.3l-2.4-3.1l10.6-8.2h3.8V757z M366.1,470.5h-4.4V442
			c0-2.4,0.1-4.6,0.2-6.7c-0.4,0.4-0.8,0.8-1.3,1.2c-0.5,0.4-2.6,2.2-6.5,5.3l-2.4-3.1l10.6-8.2h3.8V470.5z M357,385.1
			c-8.3,0-13.9-7.8-14.1-21.8c0-14.3,6.1-22.1,14.8-22.1c9,0,14.1,8,14.1,21.5C371.7,377.1,366.4,385.1,357,385.1z M406,504.3
			c-1.7,1.5-9.5,7.9-23.4,19.2l-8.6-11.2l38-29.4h13.8v143.6h-15.9V524.1c0-8.5,0.3-16.6,0.8-24.2
			C409.3,501.3,407.7,502.8,406,504.3z M436.3,748.4c-11.3,0-18.9-10.6-19.1-29.7c0-19.4,8.3-30,20.1-30c12.2,0,19.1,10.8,19.1,29.2
			C456.4,737.6,449.1,748.4,436.3,748.4z M474,625.1c-8.3,0-13.9-7.8-14.1-21.8c0-14.3,6.1-22.1,14.8-22.1c9,0,14.1,8,14.1,21.5
			C488.7,617.1,483.4,625.1,474,625.1z M537,747.7h-12.6v-80.9c0-6.7,0.2-13.1,0.6-19.1c-1.1,1.1-2.3,2.2-3.6,3.4
			c-1.3,1.2-7.5,6.2-18.5,15.1l-6.8-8.8l30-23.2H537V747.7z M540.1,559h-4.4v-28.5c0-2.4,0.1-4.6,0.2-6.7c-0.4,0.4-0.8,0.8-1.3,1.2
			s-2.6,2.2-6.5,5.3l-2.4-3.1l10.6-8.2h3.8V559z M598.1,450.4h9v94.3h-10.5v-67.2c0-5.6,0.2-10.9,0.5-15.9c-0.9,0.9-1.9,1.8-3,2.8
			c-1.1,1-6.2,5.2-15.4,12.6l-5.7-7.4L598.1,450.4z M591.6,646.5c-10.2,0-17-9.5-17.2-26.7c0-17.4,7.5-27.1,18.1-27.1
			c11,0,17.2,9.8,17.2,26.3C609.7,636.7,603.1,646.5,591.6,646.5z M650.8,411c-11.3,0-18.9-10.6-19.1-29.7c0-19.4,8.3-30,20.1-30
			c12.2,0,19.1,10.8,19.1,29.2C670.9,400.1,663.6,411,650.8,411z"/>
		<path class="st2" d="M326.5,221.4c9.8,0,14.5-11.5,14.5-29.6c0-3.2-0.2-6.2-0.5-8.9c-9.8,3.2-19.3,7.1-28.5,11.6
			C312.5,211.7,318.1,221.4,326.5,221.4z"/>
		<path class="st2" d="M279.6,321.9c7.1,0,10.4-8.2,10.4-21.3c0-12.6-3.2-20.8-10.4-20.8c-6,0-10.4,7.4-10.4,21.3
			C269.3,314.4,273.4,321.9,279.6,321.9z"/>
		<path class="st2" d="M423.3,213.5c0,26.9,8.3,42.1,21,42.1c14.3,0,21.1-16.7,21.1-43.1c0-17.3-3-30.5-9.5-37.2
			c-6.3-1.1-12.7-2-19.2-2.6C428.6,177.9,423.3,191.8,423.3,213.5z"/>
		<path class="st2" d="M651.3,357.3c-6.8,0-11.8,8.3-11.8,24.1c0,15,4.6,23.5,11.7,23.5c8,0,11.8-9.3,11.8-24.1
			C663.1,366.7,659.4,357.3,651.3,357.3z"/>
		<path class="st2" d="M271.7,583.5c-16.7,0-28.8,20.4-28.8,58.7c0,36.6,11.3,57.4,28.6,57.4c19.5,0,28.8-22.7,28.8-58.7
			C300.3,606.2,291.4,583.5,271.7,583.5z"/>
		<path class="st2" d="M592.1,598.2c-6.2,0-10.6,7.5-10.6,21.7c0,13.5,4.2,21.2,10.6,21.2c7.2,0,10.6-8.4,10.6-21.7
			C602.7,606.6,599.4,598.2,592.1,598.2z"/>
	</g>
</g>
<g id="marketing" class="st0">
	<g class="st1">
		<path class="st3" d="M872,388.8c17.1,0,31.7,6.1,43.9,18.2c12.1,12.1,18.2,26.7,18.2,43.9c0,17.1-6.1,31.7-18.2,43.9
			c-12.1,12.1-26.7,18.2-43.9,18.2V699c0,16.8-6.1,31.3-18.4,43.6c-12.3,12.3-26.8,18.4-43.6,18.4
			C675.2,648.9,544,587.5,416.4,576.9c-18.7,6.1-33.4,16.8-44.1,32c-10.7,15.2-15.7,31.4-15,48.7c0.6,17.3,7.1,32.2,19.4,44.8
			c-6.5,10.7-10.2,21.2-11.1,31.7c-1,10.5,0,19.9,2.9,28.1c2.9,8.2,8.3,17.1,16.2,26.7c7.9,9.5,15.7,17.6,23.3,24.2
			c7.6,6.6,17.5,14.8,29.8,24.5c-9.4,18.7-27.4,32.1-54,40.2c-26.7,8.1-53.9,9.9-81.7,5.6c-27.8-4.4-49.1-13.3-64-26.9
			c-2.3-7.4-7-21.6-14.3-42.4c-7.3-20.8-12.4-36.1-15.5-45.8c-3.1-9.7-6.8-24.1-11.1-43.1c-4.4-19.1-6.8-35.4-7.3-49
			c-0.5-13.6,0.1-29.5,1.7-47.7c1.6-18.3,5.2-36.1,10.7-53.6H143c-21.3,0-39.6-7.6-54.8-22.8c-15.2-15.2-22.8-33.4-22.8-54.8v-93.1
			c0-21.3,7.6-39.6,22.8-54.8c15.2-15.2,33.4-22.8,54.8-22.8h232.6c140.6,0,285.3-62,434.3-186.1c16.8,0,31.3,6.1,43.6,18.4
			c12.3,12.3,18.4,26.8,18.4,43.6V388.8z M809.9,681.5V219.2c-127.3,97.6-251.4,153-372.2,166.2v130.9
			C559.5,529.8,683.6,584.9,809.9,681.5z"/>
	</g>
</g>
</svg>
