<?xml version="1.0" encoding="utf-8"?>
<!-- Generator: Adobe Illustrator 21.0.0, SVG Export Plug-In . SVG Version: 6.00 Build 0)  -->
<svg version="1.1" xmlns="http://www.w3.org/2000/svg" xmlns:xlink="http://www.w3.org/1999/xlink" x="0px" y="0px"
	 viewBox="0 0 1000 1000" enable-background="new 0 0 1000 1000" xml:space="preserve">
<g id="Layer_1">
</g>
<g id="cons" display="none">
	<g display="inline">
		<path id="head" fill="#001E33" d="M429.7,97.1c6,0-135-8-160,95c-4,88,11,87,10,114c-3,18-13-4-25,17c-8,16,1,66,8,79
			s26.6,29.1,29,32c11,31,38,131,151,131c26,0,103-30,125-105c10-57,36-7,49-116c-7-48-26-24-30-31c3-50,24-133-13-152s-30-37-59-52
			C481.7,94.1,423.7,97.1,429.7,97.1z"/>
		<path id="body" fill="#001E33" d="M316.6,600.1c-21.9,1.8-85.8,21.9-144,45c-40.1,16-78,30.6-96,53c-21,30-17,56.8-17,82
			c0,28,0.7,51.5,2,63c7,61,57,60,57,60s637,0,638,0s45,1,51-60c3-55,4-79-1-112s-33.3-50.2-47-58c-14-8-55-21.7-87-34
			c-44.2-17-95.2-37.8-119-39c-13,46-69,221-69,221l-17-136c0,0,15-25,15-32s-6-23-10-28s-70-3-75-1s-11,21-11,28s16,33,16,33
			l-18,134C384.6,819.1,322.6,629.1,316.6,600.1z"/>
		<path id="message_box" fill="#0094FF" d="M639.6,183.1h264c0,0,17.8,3.3,27,14c12,14,10,24,10,24s0,236,0,243c0,4-3,13-11,22
			s-28,10-28,10h-75l-103,104c0,0-4,3-9,2s-6-7-6-7v-98h-113c0,0,7-8,10-16s4-18,4-18h131l1,72l73-72l87-1c0,0,3,0,4-1s1-5,1-5
			l2-230c0,0,0.6-4.4-1-6c-2-2-6-2-6-2h-259c0,0,1-1,0-15S639.6,183.1,639.6,183.1z"/>
		<g id="inner_message">
			<g id="crosses">
				<g id="cross">
					
						<rect x="677.1" y="246.6" transform="matrix(0.7071 -0.7071 0.7071 0.7071 1.5451 568.9741)" fill="#001E33" width="21" height="72"/>
					
						<rect x="677.1" y="246.6" transform="matrix(-0.7071 -0.7071 0.7071 -0.7071 973.9371 968.6619)" fill="#001E33" width="21" height="72"/>
				</g>
				<g id="cross_1_">
					
						<rect x="833.1" y="364.6" transform="matrix(0.7071 -0.7071 0.7071 0.7071 -36.2022 713.8441)" fill="#001E33" width="21" height="72"/>
					
						<rect x="833.1" y="364.6" transform="matrix(-0.7071 -0.7071 0.7071 -0.7071 1156.8071 1280.4091)" fill="#001E33" width="21" height="72"/>
				</g>
			</g>
			<g id="Arrow">
				<circle fill="#001E33" cx="691.6" cy="409.1" r="29"/>
				<path id="arrow" fill="#001E33" d="M679.6,398.1c0,0,33,7,56-14s31-77,51-95s45-25,45-25l-16-17l65,6l-42,47l-2-24
					c0,0-22,8-41,30s-26,80-50,96s-66,26-66,26V398.1z"/>
			</g>
		</g>
	</g>
</g>
<g id="dev">
	<g>
		<g id="screen">
			<path fill="#001E33" d="M859.3,201.9c25.2,0,45.9,20.6,45.9,45.9v504.5c0,25.2-20.6,45.9-45.9,45.9H140.7
				c-25.2,0-45.9-20.6-45.9-45.9V247.7c0-25.2,20.6-45.9,45.9-45.9H859.3 M859.3,171.3H140.7c-42,0-76.4,34.4-76.4,76.4v504.5
				c0,42,34.4,76.4,76.4,76.4h718.6c42,0,76.4-34.4,76.4-76.4V247.7C935.7,205.7,901.3,171.3,859.3,171.3L859.3,171.3z"/>
			<path fill="#001E33" d="M863.1,347.1H140.7c-4.6,0-7.6-3.1-7.6-7.6c0-4.6,3.1-7.6,7.6-7.6h722.4c4.6,0,7.6,3.1,7.6,7.6
				C870.8,344,867.7,347.1,863.1,347.1z"/>
			<circle fill="#0094FF" cx="175.1" cy="269.1" r="22.9"/>
			<circle fill="#001E33" cx="243.9" cy="269.1" r="22.9"/>
			<circle fill="#0094FF" cx="312.7" cy="269.1" r="22.9"/>
		</g>
		<g>
			<path d="M382,524.1L263,574.2L382,623.3v24.4l-145.5-61.3V562L382,499.7V524.1z"/>
			<path fill="#0094FF" d="M442.1,704.6h-25.1l140.8-270.8h25.1L442.1,704.6z"/>
			<path d="M763.5,562v24.4L618,647.7v-24.4L737,574.2L618,524.1v-24.4L763.5,562z"/>
		</g>
	</g>
</g>
</svg>
